# xmcd CD database file
#
# Track frame offsets:
#	150
#	15661
#	29631
#	42936
#	58528
#	73144
#	85518
#	99950
#	115428
#	130345
#	143343
#	157651
#	172003
#	185824
#
# Disc length: 2685 seconds
#
# Revision: 0
# Processed by: cddbd v1.5.2PL0 Copyright (c) Steve Scherf et al.
# Submitted via: CDex 2.17
#
DISCID=b70a7b0e
DTITLE=Bessie Smith - Empty Bed Blues - disc 1
DYEAR=2006
DGENRE=Blues
TTITLE0=Down Hearted Blues
TTITLE1=Gulf Coast Blues
TTITLE2=Baby, Won't You Please Come Home
TTITLE3='t Ain't Nobody's Business If I Do
TTITLE4=Jailhouse Blues
TTITLE5=Graveyard Dream Blues
TTITLE6=My Sweetie Went Away
TTITLE7=Any Woman's Blues
TTITLE8=Ticket Agent, Easy Your Window Down
TTITLE9=Boweavil Blues
TTITLE10=Weeping Willow Blues
TTITLE11=St. Louis Blues
TTITLE12=Reckless Blues
TTITLE13=You've Been A Good Old Wagon
EXTD=YEAR: 2006
EXTT0=
EXTT1=
EXTT2=
EXTT3=
EXTT4=
EXTT5=
EXTT6=
EXTT7=
EXTT8=
EXTT9=
EXTT10=
EXTT11=
EXTT12=
EXTT13=
PLAYORDER=
